<svg xmlns="http://www.w3.org/2000/svg" viewBox="0 0 620.18 149.54"><defs><style>.cls-1,.cls-2{fill:#e8450b;}.cls-1,.cls-3{fill-rule:evenodd;}.cls-3{fill:#0051a1;}</style></defs><g id="Слой_2" data-name="Слой 2"><g id="Слой_1-2" data-name="Слой 1"><polygon class="cls-1" points="78.05 21.86 41.95 5.29 5.76 21.87 0 19.23 41.95 0 83.81 19.21 78.05 21.86"/><polygon class="cls-1" points="74.23 83.05 9.61 83.05 9.61 25.39 41.94 10.57 74.23 25.39 74.23 83.05"/><ellipse class="cls-2" cx="595.03" cy="19.58" rx="7.9" ry="8.06"/><polygon class="cls-1" points="120.18 56.82 118.25 56.82 107.03 28.96 86.9 28.96 86.9 83.14 98.56 83.14 101.22 83.14 101.22 52.18 101.22 46.16 111.28 70.75 127.15 70.75 137.21 46.16 137.21 52.18 137.21 83.14 139.87 83.14 151.53 83.14 151.53 28.96 131.4 28.96 120.18 56.82"/><path class="cls-1" d="M176.63,50.19A13.72,13.72,0,0,1,189.91,40.1a12.76,12.76,0,0,1,12.76,10.09Zm13.28-22.84c-16.57,0-29.22,12.75-29.22,28.69s12.65,28.69,29.22,28.69c11.69,0,18.6-4.78,22.85-9.57a28.08,28.08,0,0,0,5.32-9.56H202.14a12,12,0,0,1-2.56,3.19A14.64,14.64,0,0,1,189.91,72c-6.9,0-12.64-5.85-13.81-12.76h42.51V56C218.61,40.2,206.92,27.35,189.91,27.35Z"/><polygon class="cls-1" points="267.06 28.96 228.61 28.96 228.61 83.13 242.93 83.13 242.93 42.12 267.06 42.12 267.06 28.96"/><path class="cls-1" d="M287,59.92l4.64-17.8h5.42l4.64,17.8Zm-5.81-31-14.7,54.17h14.7l2.71-10.83h20.9l2.71,10.83h14.7L307.53,29Z"/><path class="cls-1" d="M355.74,40.57a14.42,14.42,0,0,1,10.68,4.1,14,14,0,0,1,3.82,6.68h14.29a27.36,27.36,0,0,0-5.8-13.26c-4.1-5.26-11.3-10.68-23-10.68-17.8,0-30.18,12.39-30.18,28.64s12.38,28.63,30.18,28.63c11.77,0,19-5.57,23.14-11.22a29.82,29.82,0,0,0,5.65-12.8H370.09a13.56,13.56,0,0,1-3,6.22c-2.09,2.4-5.42,4.65-11.3,4.65-8.9,0-15.09-6.2-15.09-15.48S346.84,40.57,355.74,40.57Z"/><polygon class="cls-1" points="388.99 42.12 406.02 42.12 406.02 83.13 420.33 83.13 420.33 42.12 437.36 42.12 437.36 28.96 388.99 28.96 388.99 42.12"/><path class="cls-1" d="M472.39,55.27H460.78V42.12h11.61c5.49,0,8.12,2.63,8.12,6.57s-2.63,6.58-8.12,6.58ZM472.77,29H446.46V83.13h14.32V68.43h12c13.62,0,22.45-8.9,22.45-19.74S486.39,29,472.77,29Z"/><path class="cls-1" d="M532,71.53c-8.9,0-15.09-6.2-15.09-15.48S523.13,40.57,532,40.57s15.09,6.19,15.09,15.48S540.93,71.53,532,71.53Zm0-44.12c-17.8,0-30.18,13.16-30.18,28.64S514.23,84.68,532,84.68s30.19-13.15,30.19-28.63S549.83,27.41,532,27.41Z"/><polygon class="cls-1" points="618.26 28.96 605.86 28.96 603.54 28.96 584.19 61.97 584.19 55.66 584.19 28.96 577.72 28.96 569.88 28.96 569.88 83.13 577.72 83.13 584.19 83.13 586.51 83.13 605.86 50.13 605.86 56.44 605.86 83.13 618.26 83.13 620.18 83.13 620.18 28.96 618.26 28.96"/><rect class="cls-2" x="78.05" y="17.05" width="516.15" height="4.81"/><path class="cls-3" d="M46.08,135.55a19.26,19.26,0,0,1,0-27,18.7,18.7,0,0,1,13.57-5.34q9.25,0,14.45,6.51a18.17,18.17,0,0,1,3.35,6.46H71.61a12.08,12.08,0,0,0-2.55-3.66,12.72,12.72,0,0,0-9.41-3.71,12.54,12.54,0,0,0-9.35,3.66,14.46,14.46,0,0,0,0,19.12,12.54,12.54,0,0,0,9.35,3.66,12.54,12.54,0,0,0,9.62-4.07,12.2,12.2,0,0,0,2.59-4.07h5.85A21.18,21.18,0,0,1,74,134a17.15,17.15,0,0,1-14.35,6.86,18.7,18.7,0,0,1-13.57-5.34Zm50.7,4.33V113.94h5.34v10.43h12.71V113.94h5.34v25.94h-5.34V129.2H102.12v10.68Zm31.45-3.23a15.37,15.37,0,0,1,0-19.48,11.44,11.44,0,0,1,8.72-3.74,10.29,10.29,0,0,1,6.06,1.94,11,11,0,0,1,2.08,1.88h.26v-3.31h5.34v25.94h-5.34v-3.56h-.26a9.16,9.16,0,0,1-2.08,2,9.93,9.93,0,0,1-6.06,2,11.44,11.44,0,0,1-8.72-3.74Zm4.15-16.15a11.09,11.09,0,0,0,0,12.82,7.17,7.17,0,0,0,5.59,2.23,6.82,6.82,0,0,0,5.37-2.26,11.13,11.13,0,0,0,0-12.76,6.83,6.83,0,0,0-5.37-2.27,7.17,7.17,0,0,0-5.59,2.24Zm24.41,19.38V113.94h7.63l6.86,15.51h1l6.86-15.51h7.63v25.94h-5.34V121.57l.05-.51h-.25l-6.41,14.24h-6.1l-6.41-14.24h-.25l0,.51v18.31Zm36.11,0V113.94h5.33v17.29l0,.51h.51l11.75-17.8h5.85v25.94H211V122.59l.05-.51h-.51l-11.75,17.8Zm43.73,0V113.94h13a8.65,8.65,0,0,1,5.8,1.78,5.74,5.74,0,0,1,2.08,4.58,5.61,5.61,0,0,1-2,4.63,5.11,5.11,0,0,1-2,1v.21a6.29,6.29,0,0,1,2.55,1,6,6,0,0,1,2.54,5.34,6.82,6.82,0,0,1-2.39,5.29,9,9,0,0,1-6.26,2.14ZM242,124.11h7.12c2,0,3-.93,3-2.79,0-1.7-1-2.55-3-2.55H242v5.34Zm0,10.94h7.63a3.68,3.68,0,0,0,2.62-.89,3.17,3.17,0,0,0,.94-2.42,2.82,2.82,0,0,0-.94-2.21,3.8,3.8,0,0,0-2.62-.84H242v6.36Zm23.55,1.52a14.4,14.4,0,0,1,0-19.32,12.36,12.36,0,0,1,9.25-3.82,12.54,12.54,0,0,1,10.12,4.73,13.21,13.21,0,0,1,2.34,4.68h-5.59a5.48,5.48,0,0,0-1.32-2.29,7,7,0,0,0-5.55-2.29,6.75,6.75,0,0,0-5.26,2.39,10.33,10.33,0,0,0,0,12.51,6.71,6.71,0,0,0,5.26,2.39,7.41,7.41,0,0,0,5.75-2.28,6.78,6.78,0,0,0,1.37-2.29h5.34a12.64,12.64,0,0,1-2.34,4.73,13.2,13.2,0,0,1-19.37.86Zm28.35-.07a13.9,13.9,0,0,1,0-19.18,13.25,13.25,0,0,1,18.76,0,13.13,13.13,0,0,1,3.84,9.59v1.78h-21.1a8.34,8.34,0,0,0,2.8,5,7.66,7.66,0,0,0,5.08,1.83,8.62,8.62,0,0,0,5.7-1.78,7,7,0,0,0,1.68-1.78h5.59a14.21,14.21,0,0,1-2.7,4.23,14,14,0,0,1-10.27,4.17,12.7,12.7,0,0,1-9.38-3.89Zm1.75-12.13h15.26a7.31,7.31,0,0,0-7.63-6.11,7.77,7.77,0,0,0-4.88,1.66,7.41,7.41,0,0,0-2.75,4.45Zm10.17-15.11a3.19,3.19,0,1,1,2.19.87,3,3,0,0,1-2.19-.87Zm-9.4,0a3.06,3.06,0,0,1,2.18-5.24,3,3,0,0,1,3.05,3.06,2.92,2.92,0,0,1-.86,2.18,3,3,0,0,1-2.19.87,2.93,2.93,0,0,1-2.18-.87Zm38.9,30.62V113.94h23.14v25.94h-5.34V118.77H340.63v21.11Zm31.61-3.38a13.75,13.75,0,1,1,9.58,3.89,13,13,0,0,1-9.58-3.89Zm3.89-15.87a10.1,10.1,0,0,0,0,12.56,8.05,8.05,0,0,0,11.39,0,10.14,10.14,0,0,0,0-12.56,8,8,0,0,0-11.39,0Zm20.95,19.25,7.12-25.94H410.3l7.12,25.94h-5.59l-5.6-21.11h-3.3l-5.6,21.11Zm26.44-25.94h5.6l5.59,20.85h2.8l6.1-20.85h5.6l-10.68,35.6h-5.6l3.05-9.66H425.3l-7.12-25.94Zm27.72,9.66v-9.66h5.34v9.16a4.72,4.72,0,0,0,1.32,3.56,5.26,5.26,0,0,0,3.77,1.27,13.39,13.39,0,0,0,4.88-.77,3.88,3.88,0,0,0,1.47-.76V113.94H468v25.94h-5.34V131a8.17,8.17,0,0,1-1.73.91,13.85,13.85,0,0,1-5.13.87c-3.16,0-5.6-.82-7.33-2.44a8.78,8.78,0,0,1-2.59-6.72Zm28.22,16.28V113.94h5.34v17.29l0,.51h.51l11.75-17.8h5.85v25.94h-5.34V122.59l.05-.51h-.51L480,139.88Zm26.7-21.11v-4.83h22.63v4.83h-8.64v21.11h-5.34V118.77ZM529,136.57a14.4,14.4,0,0,1,0-19.32,12.36,12.36,0,0,1,9.25-3.82,12.54,12.54,0,0,1,10.12,4.73,13.21,13.21,0,0,1,2.34,4.68h-5.59a5.48,5.48,0,0,0-1.32-2.29,7,7,0,0,0-5.55-2.29,6.75,6.75,0,0,0-5.26,2.39,10.33,10.33,0,0,0,0,12.51,6.71,6.71,0,0,0,5.26,2.39,7.41,7.41,0,0,0,5.75-2.28,6.78,6.78,0,0,0,1.37-2.29h5.34a12.64,12.64,0,0,1-2.34,4.73,13.2,13.2,0,0,1-19.37.86Zm25,3.31,5.08-9.41a9.73,9.73,0,0,1-2.44-1.63,7.92,7.92,0,0,1-2.39-6,8.27,8.27,0,0,1,2.75-6.41,10.62,10.62,0,0,1,7.42-2.49h11.7v25.94h-5.34V132h-6.61l-4.07,7.89Zm5.85-17A4.12,4.12,0,0,0,561,126a5.09,5.09,0,0,0,3.61,1.14h6.1v-8.39h-6.1a5.13,5.13,0,0,0-3.54,1.15,3.72,3.72,0,0,0-1.29,2.92Zm23.64-1V104.28h5.6v17.54l-1,7.38h-3.56l-1-7.38Zm.26,17.8a3.67,3.67,0,1,1,2.54,1A3.42,3.42,0,0,1,583.72,139.62Z"/></g></g></svg>